<?xml version="1.0" encoding="utf-8"?>
<svg aria-label="Android" role="img" viewBox="0 0 512 512" xmlns="http://www.w3.org/2000/svg">
  <rect width="512" height="297.125" rx="288" fill="#fff" style="" y="123.059"/>
  <rect width="511.362" height="512.638" style="stroke: rgb(0, 0, 0); fill: rgb(18, 18, 18); paint-order: stroke markers;" y="-0.319" x="0.319"/>
  <path d="M 368.971 322.57 C 353.232 322.573 343.394 305.982 351.26 292.71 C 359.127 279.435 378.797 279.431 386.669 292.702 C 388.463 295.729 389.409 299.163 389.409 302.656 C 389.397 313.647 380.254 322.553 368.971 322.57 M 143.032 322.57 C 127.294 322.573 117.456 305.982 125.323 292.71 C 133.188 279.435 152.86 279.431 160.731 292.702 C 162.526 295.729 163.47 299.163 163.471 302.656 C 163.458 313.647 154.317 322.555 143.032 322.57 M 376.301 202.653 L 417.15 133.747 C 420.431 128.232 416.351 121.327 409.807 121.317 C 406.767 121.313 403.953 122.892 402.432 125.459 L 361.066 195.236 C 329.433 181.177 293.905 173.346 255.997 173.346 C 218.089 173.346 182.565 181.188 150.931 195.236 L 109.568 125.459 C 106.304 119.937 98.126 119.926 94.847 125.441 C 93.322 128.006 93.322 131.169 94.847 133.735 L 135.702 202.653 C 65.55 239.812 17.57 308.975 10.551 390.688 L 501.449 390.688 C 494.423 308.975 446.447 239.812 376.301 202.653" fill="#3ddc84" style=""/>
</svg>